# xmcd
#
# Track frame offsets:
#	150
#	14553
#	28823
#	44975
#	58573
#	71878
#	85178
#	100031
#	114678
#	127799
#	141705
#	155436
#	169798
#	183463
#	197125
#	210690
#
# Disc length: 2976 seconds
#
# Revision: 0
# Processed by: cddbd v1.4PL0 Copyright (c) Steve Scherf et al.
# Submitted via: audiograbber 1.81.02
#
DISCID=f20b9e10
DTITLE=John Lee Hooker - Don't You Remember Me
DYEAR=1990
DGENRE=Blues
TTITLE0=Stomp Boogie
TTITLE1=Who's Been Jiving You
TTITLE2=Black Man Blues
TTITLE3=Poor Joe
TTITLE4=Nightmare Blues
TTITLE5=Late Last Night
TTITLE6=Wandering Blues
TTITLE7=Don't Go Baby
TTITLE8=Devil's Jump
TTITLE9=I'm Gonna Kill That Woman
TTITLE10=Moaning Blues
TTITLE11=The Numbers
TTITLE12=Heart Trouble Blues
TTITLE13=Slim's Stomp
TTITLE14=Thinking Blues
TTITLE15=Don't You Remember Me
EXTD=Adding Year and Category
EXTT0=
EXTT1=
EXTT2=
EXTT3=
EXTT4=
EXTT5=
EXTT6=
EXTT7=
EXTT8=
EXTT9=
EXTT10=
EXTT11=
EXTT12=
EXTT13=
EXTT14=
EXTT15=
PLAYORDER=
